# xmcd
#
# Track frame offsets:
#	150
#	16238
#	30320
#	42667
#	54813
#	67093
#	77700
#	91412
#	106513
#	119115
#	129488
#	145080
#
# Disc length: 2097 seconds
#
# Revision: 0
# Processed by: cddbd v1.5.2PL0 Copyright (c) Steve Scherf et al.
# Submitted via: audiograbber 1.83.01
#
DISCID=99082f0c
DTITLE=The Larry Stephenson Band - Far Away In Tennessee
DYEAR=1995
DGENRE=Bluegrass
TTITLE0=Any Ole Stretch of Blacktop
TTITLE1=Rose Song
TTITLE2=Give Me The Chance
TTITLE3=The Next Time You See Me
TTITLE4=Alone With You
TTITLE5=Foggy Mountain Chimes
TTITLE6=I Can See Arkansas
TTITLE7=Your Love Keeps Calling Me
TTITLE8=Someday I'll Take The Risk
TTITLE9=Teardrops From My Eyes
TTITLE10=The Son Shines Down On Me
TTITLE11=Cabin On A Mountain
EXTD=
EXTT0=
EXTT1=
EXTT2=
EXTT3=
EXTT4=
EXTT5=
EXTT6=
EXTT7=
EXTT8=
EXTT9=
EXTT10=
EXTT11=
PLAYORDER=
